<svg width="299" height="44" viewBox="0 0 299 44" fill="none" xmlns="http://www.w3.org/2000/svg">
<path d="M284.361 39.4799C282.345 39.4799 280.537 39.128 278.937 38.424C277.369 37.688 276.137 36.504 275.241 34.872C274.345 33.208 273.897 31.016 273.897 28.296C273.897 25.576 274.393 23.2879 275.385 21.4319C276.377 19.5759 277.705 18.1679 279.369 17.2079C281.033 16.2479 282.857 15.7679 284.841 15.7679C287.337 15.7679 289.465 16.3439 291.225 17.4959V6.64795H297.705V39H292.137L291.753 36.888C290.761 37.752 289.673 38.4079 288.489 38.8559C287.337 39.2719 285.961 39.4799 284.361 39.4799ZM286.137 34.728C288.153 34.728 289.849 34.04 291.225 32.664V22.2959C289.881 21.1119 288.313 20.52 286.521 20.52C282.489 20.52 280.473 23.112 280.473 28.296C280.473 30.728 280.969 32.4079 281.961 33.3359C282.953 34.2639 284.345 34.728 286.137 34.728Z" fill="white"/>
<path d="M246.955 39.0001V16.2481H252.955L253.195 18.4081C254.123 17.7041 255.291 17.0961 256.699 16.5841C258.139 16.0401 259.643 15.7681 261.211 15.7681C264.219 15.7681 266.411 16.4721 267.787 17.8801C269.163 19.2881 269.851 21.4641 269.851 24.4081V39.0001H263.371V24.7441C263.371 23.2081 263.051 22.1201 262.411 21.4801C261.803 20.8401 260.651 20.5201 258.955 20.5201C257.963 20.5201 256.955 20.7441 255.931 21.1921C254.939 21.6401 254.107 22.2001 253.435 22.8721V39.0001H246.955Z" fill="white"/>
<path d="M233.95 12.0719V6.98389H241.006V12.0719H233.95ZM234.478 38.9999V21.0479H231.07L231.646 16.2479H240.958V38.9999H234.478Z" fill="white"/>
<path d="M225.613 39.4799C223.405 39.4799 221.789 38.968 220.765 37.944C219.773 36.92 219.277 35.288 219.277 33.048V6.64795H225.757V32.52C225.757 33.32 225.917 33.88 226.237 34.2C226.557 34.488 227.021 34.632 227.629 34.632C228.461 34.632 229.213 34.52 229.885 34.296V38.7599C228.669 39.2399 227.245 39.4799 225.613 39.4799Z" fill="white"/>
<path d="M188.281 38.9999V8.08789H203.929C207.033 8.08789 209.337 8.82389 210.841 10.2959C212.377 11.7359 213.145 13.7839 213.145 16.4399C213.145 18.1039 212.825 19.4959 212.185 20.6159C211.545 21.7039 210.681 22.5519 209.593 23.1599C211.033 23.6079 212.169 24.3599 213.001 25.4159C213.865 26.4399 214.297 27.9599 214.297 29.9759C214.297 32.9519 213.449 35.2079 211.753 36.7439C210.089 38.2479 207.673 38.9999 204.505 38.9999H188.281ZM194.761 20.9039H202.729C204.297 20.9039 205.417 20.5679 206.089 19.8959C206.761 19.1919 207.097 18.2159 207.097 16.9679C207.097 15.5919 206.745 14.5679 206.041 13.8959C205.369 13.2239 204.105 12.8879 202.249 12.8879H194.761V20.9039ZM194.761 34.2479H202.969C204.601 34.2479 205.801 33.9119 206.569 33.2399C207.337 32.5679 207.721 31.3839 207.721 29.6879C207.721 28.3119 207.337 27.2879 206.569 26.6159C205.833 25.9439 204.489 25.6079 202.537 25.6079H194.761V34.2479Z" fill="white"/>
<path d="M170.911 39.4801C166.655 39.4801 163.535 38.4561 161.551 36.4081C159.567 34.3281 158.575 31.4001 158.575 27.6241C158.575 23.8481 159.567 20.9361 161.551 18.8881C163.567 16.8081 166.687 15.7681 170.911 15.7681C175.167 15.7681 178.287 16.8081 180.271 18.8881C182.287 20.9361 183.295 23.8481 183.295 27.6241C183.295 31.4001 182.303 34.3281 180.319 36.4081C178.335 38.4561 175.199 39.4801 170.911 39.4801ZM170.911 33.9601C172.991 33.9601 174.479 33.4961 175.375 32.5681C176.271 31.6081 176.719 29.9601 176.719 27.6241C176.719 25.2881 176.271 23.6561 175.375 22.7281C174.479 21.7681 172.991 21.2881 170.911 21.2881C168.863 21.2881 167.391 21.7681 166.495 22.7281C165.599 23.6561 165.151 25.2881 165.151 27.6241C165.151 29.9601 165.599 31.6081 166.495 32.5681C167.391 33.4961 168.863 33.9601 170.911 33.9601Z" fill="white"/>
<path d="M150.642 39.4799C148.018 39.4799 146.066 38.7919 144.786 37.4159C143.538 36.0399 142.914 34.1679 142.914 31.7999V21.2399H139.698V16.2479H142.914V11.3519L149.394 9.43188V16.2479H155.154L154.77 21.2399H149.394V31.3679C149.394 32.6159 149.682 33.4799 150.258 33.9599C150.834 34.4079 151.73 34.6319 152.946 34.6319C153.842 34.6319 154.77 34.4719 155.73 34.1519V38.6159C155.026 38.9039 154.258 39.1119 153.426 39.2399C152.594 39.3999 151.666 39.4799 150.642 39.4799Z" fill="white"/>
<path d="M120.392 38.9999L108.584 8.08789H115.352L123.896 31.7519L132.488 8.08789H139.256L127.496 38.9999H120.392Z" fill="white"/>
<path d="M96.808 39.4799C91.624 39.4799 87.656 38.0879 84.904 35.3039C82.152 32.4879 80.776 28.6639 80.776 23.8319C80.776 18.7119 82.104 14.7279 84.76 11.8799C87.448 9.03191 91.448 7.60791 96.76 7.60791C98.616 7.60791 100.28 7.75191 101.752 8.03991C103.256 8.29591 104.664 8.66391 105.976 9.14391V14.8079C103.256 13.6879 100.344 13.1279 97.24 13.1279C93.72 13.1279 91.192 14.0079 89.656 15.7679C88.12 17.5279 87.352 20.2159 87.352 23.8319C87.352 30.6159 90.68 34.0079 97.336 34.0079C98.84 34.0079 100.328 33.8799 101.8 33.6239C103.272 33.3359 104.68 32.9199 106.024 32.3759V38.0879C104.712 38.5039 103.304 38.8399 101.8 39.0959C100.328 39.3519 98.664 39.4799 96.808 39.4799Z" fill="white"/>
<path d="M8 11C8 10.4477 8.44772 10 9 10H20C20.5523 10 21 10.4477 21 11V13C21 13.5523 20.5523 14 20 14H9C8.44772 14 8 13.5523 8 13V11Z" fill="white"/>
<path fill-rule="evenodd" clip-rule="evenodd" d="M5 43C2.79086 43 1 41.2091 1 39V5C1 2.79086 2.79086 1 5 1H53.685C57.0231 1 59.7327 1.86956 61.8136 3.6087C63.9379 5.34783 65 7.63044 65 10.4565C65 11.3261 64.9133 12.1304 64.7399 12.8696C64.3064 14.9565 63.5694 16.7391 62.5289 18.2174C61.5318 19.6957 60.3396 20.8696 58.9523 21.7391C60.1228 22.3478 61.0549 23.1087 61.7486 24.0217C62.4422 24.8913 62.789 26.087 62.789 27.6087C62.789 28 62.7457 28.4348 62.659 28.913C62.6156 29.3478 62.5506 29.8043 62.4639 30.2826C61.6402 34.2391 59.8194 37.3478 57.0014 39.6087C54.2269 41.8696 50.2601 43 45.1012 43H5ZM24.4286 17L27.8571 5H5V39H18.1429L19.2857 35H9C8.44772 35 8 34.5523 8 34V32C8 31.4477 8.44772 31 9 31H20.4286L21.2857 28H9C8.44771 28 8 27.5523 8 27V25C8 24.4477 8.44772 24 9 24H22.4286L23.2857 21H9C8.44772 21 8 20.5523 8 20V18C8 17.4477 8.44772 17 9 17H24.4286ZM38.0978 17.1087H46.0766C48.1575 17.1087 49.3931 16.1739 49.7832 14.3043C49.8266 14.1304 49.8483 13.913 49.8483 13.6522C49.8483 12.3478 48.9812 11.6957 47.2471 11.6957H39.5652L38.0978 17.1087ZM34.1848 32.3043H42.8251C44.9061 32.3043 46.1416 31.3696 46.5318 29.5C46.5751 29.3696 46.5968 29.2391 46.5968 29.1087V28.7826C46.5968 27.5217 45.7298 26.8913 43.9957 26.8913H35.6522L34.1848 32.3043Z" fill="white"/>
</svg>
