<svg width="295" height="36" viewBox="0 0 295 36" fill="none" xmlns="http://www.w3.org/2000/svg">
<path d="M5.99003 8.57143C5.99003 8.09804 6.37314 7.71429 6.84574 7.71429H16.2586C16.7312 7.71429 17.1144 8.09804 17.1144 8.57143V10.2857C17.1144 10.7591 16.7312 11.1429 16.2586 11.1429H6.84574C6.37314 11.1429 5.99003 10.7591 5.99003 10.2857V8.57143Z" fill="#131313"/>
<path fill-rule="evenodd" clip-rule="evenodd" d="M3.42287 36C1.53247 36 0 34.465 0 32.5714V3.42857C0 1.53502 1.53247 0 3.42287 0H45.0835C47.94 0 50.2586 0.745341 52.0393 2.23603C53.8571 3.72671 54.766 5.68323 54.766 8.10559C54.766 8.85093 54.6918 9.54038 54.5434 10.1739C54.1724 11.9627 53.5417 13.4907 52.6514 14.7578C51.7981 16.0248 50.778 17.0311 49.5908 17.7764C50.5925 18.2981 51.3901 18.9503 51.9836 19.7329C52.5772 20.4783 52.874 21.5031 52.874 22.8075C52.874 23.1429 52.8369 23.5155 52.7627 23.9255C52.7256 24.2981 52.6699 24.6894 52.5957 25.0994C51.8909 28.4907 50.3328 31.1553 47.9215 33.0932C45.5472 35.0311 42.1528 36 37.7382 36H3.42287ZM20.0483 13.7143L22.9821 3.42857H3.42287V32.5714H14.6695L15.6474 29.1429H6.84574C6.37314 29.1429 5.99003 28.7591 5.99003 28.2857V26.5714C5.99003 26.098 6.37314 25.7143 6.84574 25.7143H16.6254L17.3589 23.1429H6.84574C6.37314 23.1429 5.99003 22.7591 5.99003 22.2857V20.5714C5.99003 20.098 6.37314 19.7143 6.84574 19.7143H18.3368L19.0703 17.1429H6.84574C6.37314 17.1429 5.99003 16.7591 5.99003 16.2857V14.5714C5.99003 14.098 6.37314 13.7143 6.84574 13.7143H20.0483ZM31.7453 13.8075H38.5729C40.3535 13.8075 41.4108 13.0062 41.7447 11.4037C41.7818 11.2547 41.8003 11.0683 41.8003 10.8447C41.8003 9.72671 41.0584 9.1677 39.5745 9.1677H33.001L31.7453 13.8075ZM28.3968 26.8323H35.7905C37.5712 26.8323 38.6285 26.0311 38.9624 24.4286C38.9995 24.3168 39.018 24.205 39.018 24.0932V23.8137C39.018 22.7329 38.2761 22.1925 36.7922 22.1925H29.6525L28.3968 26.8323Z" fill="#131313"/>
<path d="M279.963 36C277.749 36 275.763 35.6134 274.006 34.8404C272.284 34.0321 270.931 32.732 269.948 30.9398C268.964 29.1125 268.472 26.7054 268.472 23.7185C268.472 20.7316 269.016 18.219 270.106 16.1809C271.195 14.1428 272.653 12.5966 274.481 11.5424C276.308 10.4882 278.311 9.9611 280.49 9.9611C283.231 9.9611 285.567 10.5936 287.5 11.8587V1.271H294.616V35.4729H288.502L288.08 33.1536C286.991 34.1024 285.796 34.8228 284.496 35.3148C283.231 35.7716 281.72 36 279.963 36ZM281.913 30.7817C284.127 30.7817 285.989 30.0262 287.5 28.5151V17.1297C286.024 15.8295 284.302 15.1794 282.334 15.1794C277.907 15.1794 275.693 18.0258 275.693 23.7185C275.693 26.3891 276.238 28.234 277.327 29.2531C278.416 30.2721 279.945 30.7817 281.913 30.7817Z" fill="#131313"/>
<path d="M240.208 35.4732V10.4885H246.797L247.061 12.8605C248.08 12.0874 249.362 11.4197 250.908 10.8575C252.49 10.2601 254.141 9.96143 255.863 9.96143C259.166 9.96143 261.573 10.7345 263.085 12.2807C264.596 13.8268 265.351 16.2164 265.351 19.4493V35.4732H258.235V19.8183C258.235 18.1315 257.884 16.9368 257.181 16.234C256.513 15.5311 255.248 15.1797 253.386 15.1797C252.296 15.1797 251.19 15.4257 250.065 15.9177C248.976 16.4097 248.062 17.0246 247.324 17.7626V35.4732H240.208Z" fill="#131313"/>
<path d="M226.942 6.85829V1.271H234.691V6.85829H226.942ZM227.522 35.4728V15.7591H223.78L224.412 10.4881H234.638V35.4728H227.522Z" fill="#131313"/>
<path d="M218.019 36C215.594 36 213.82 35.4377 212.695 34.3133C211.606 33.1888 211.061 31.3966 211.061 28.9368V1.271H218.177V28.357C218.177 29.2355 218.353 29.8505 218.704 30.2019C219.056 30.5181 219.565 30.6762 220.233 30.6762C221.147 30.6762 221.972 30.5533 222.71 30.3073V35.2093C221.375 35.7364 219.811 36 218.019 36Z" fill="#131313"/>
<path d="M178.382 35.4728V1.52734H195.565C198.974 1.52734 201.504 2.33557 203.155 3.95202C204.842 5.53333 205.686 7.7823 205.686 10.6989C205.686 12.5262 205.334 14.0548 204.631 15.2847C203.929 16.4795 202.98 17.4107 201.785 18.0784C203.366 18.5703 204.614 19.3961 205.527 20.5558C206.476 21.6803 206.951 23.3494 206.951 25.5632C206.951 28.8313 206.019 31.3087 204.157 32.9954C202.33 34.647 199.677 35.4728 196.198 35.4728H178.382ZM185.497 15.601H194.247C195.969 15.601 197.199 15.232 197.937 14.4941C198.675 13.721 199.044 12.6492 199.044 11.2788C199.044 9.76772 198.657 8.64324 197.884 7.90529C197.146 7.16735 195.758 6.79838 193.72 6.79838H185.497V15.601ZM185.497 30.2545H194.511C196.303 30.2545 197.621 29.8855 198.464 29.1475C199.308 28.4096 199.729 27.1094 199.729 25.247C199.729 23.736 199.308 22.6115 198.464 21.8735C197.656 21.1356 196.18 20.7666 194.037 20.7666H185.497V30.2545Z" fill="#131313"/>
<path d="M159.955 35.9998C155.281 35.9998 151.855 34.8753 149.676 32.6264C147.498 30.3423 146.408 27.1269 146.408 22.9804C146.408 18.8338 147.498 15.6361 149.676 13.3871C151.89 11.103 155.316 9.96094 159.955 9.96094C164.629 9.96094 168.055 11.103 170.234 13.3871C172.447 15.6361 173.554 18.8338 173.554 22.9804C173.554 27.1269 172.465 30.3423 170.286 32.6264C168.108 34.8753 164.664 35.9998 159.955 35.9998ZM159.955 29.9381C162.239 29.9381 163.873 29.4286 164.857 28.4095C165.841 27.3553 166.333 25.5456 166.333 22.9804C166.333 20.4152 165.841 18.623 164.857 17.6039C163.873 16.5497 162.239 16.0226 159.955 16.0226C157.706 16.0226 156.09 16.5497 155.106 17.6039C154.122 18.623 153.63 20.4152 153.63 22.9804C153.63 25.5456 154.122 27.3553 155.106 28.4095C156.09 29.4286 157.706 29.9381 159.955 29.9381Z" fill="#131313"/>
<path d="M138.818 36.0001C135.937 36.0001 133.793 35.2446 132.388 33.7335C131.017 32.2225 130.332 30.1668 130.332 27.5664V15.9702H126.801V10.4883H130.332V5.11183L137.448 3.00342V10.4883H143.773L143.352 15.9702H137.448V27.092C137.448 28.4625 137.764 29.4113 138.397 29.9384C139.029 30.4304 140.013 30.6763 141.349 30.6763C142.333 30.6763 143.352 30.5006 144.406 30.1492V35.0513C143.633 35.3676 142.789 35.596 141.876 35.7365C140.962 35.9122 139.943 36.0001 138.818 36.0001Z" fill="#131313"/>
<path d="M105.321 35.4728L92.3542 1.52734H99.7864L109.169 27.5135L118.604 1.52734H126.036L113.122 35.4728H105.321Z" fill="#131313"/>
<path d="M80.3711 35.9996C74.6784 35.9996 70.321 34.471 67.299 31.4138C64.2769 28.3215 62.7659 24.1223 62.7659 18.8161C62.7659 13.1937 64.2242 8.8187 67.1408 5.69122C70.0926 2.56374 74.4851 1 80.3184 1C82.3565 1 84.1838 1.15813 85.8003 1.47439C87.4519 1.75551 88.998 2.15963 90.4388 2.68673V8.90655C87.4519 7.67664 84.2541 7.06169 80.8455 7.06169C76.9801 7.06169 74.204 8.02804 72.5173 9.96075C70.8305 11.8935 69.9872 14.8452 69.9872 18.8161C69.9872 26.2658 73.6418 29.9907 80.9509 29.9907C82.6025 29.9907 84.2365 29.8501 85.853 29.569C87.4694 29.2527 89.0156 28.7959 90.4915 28.1985V34.471C89.0507 34.9279 87.5046 35.2968 85.853 35.578C84.2365 35.8591 82.4092 35.9996 80.3711 35.9996Z" fill="#131313"/>
</svg>
